<svg width="38" height="57" viewBox="0 0 38 57" fill="none" xmlns="http://www.w3.org/2000/svg">
<path fill-rule="evenodd" clip-rule="evenodd" d="M37.0645 37.5795C29.8386 42.0709 23.657 49.0616 18.9999 56.5C14.4134 48.9915 8.16123 42.2921 0.93542 37.5795V33.0898C8.16123 37.8006 14.2652 43.4662 18.9999 50.464C23.8051 43.4662 29.8386 37.5795 37.0645 33.0161V37.5795" fill="#202020"/>
<path opacity="0.7" fill-rule="evenodd" clip-rule="evenodd" d="M37.0645 26.7399C29.8386 31.2323 23.657 38.2264 18.9999 45.6611C14.4134 38.1527 8.16123 31.4535 0.93542 26.7399V22.251C8.16123 26.9593 14.2652 32.6297 18.9999 39.6238C23.8051 32.6297 29.8386 26.7399 37.0645 22.1772V26.7399" fill="#202020"/>
<path opacity="0.5" fill-rule="evenodd" clip-rule="evenodd" d="M37.0645 15.9015C29.8386 20.394 23.657 27.388 18.9999 34.8227C14.4134 27.3143 8.16123 20.6152 0.93542 15.9015V11.4126C8.16123 16.1209 14.2652 21.7913 18.9999 28.7854C23.8051 21.7913 29.8386 15.9015 37.0645 11.3389V15.9015" fill="#202020"/>
<path opacity="0.3" fill-rule="evenodd" clip-rule="evenodd" d="M37.0645 5.06261C29.8386 9.55508 23.657 16.5492 18.9999 23.9839C14.4134 16.4754 8.16123 9.77629 0.93542 5.06261V0.573736C8.16123 5.28202 14.2652 10.9525 18.9999 17.9465C23.8051 10.9525 29.8386 5.06261 37.0645 0.5V5.06261" fill="#202020"/>
</svg>
