<svg width="44" height="40" viewBox="0 0 44 40" fill="none" xmlns="http://www.w3.org/2000/svg">
<path d="M7.07397 13.4698V23.1909L14.6793 23.2966C13.4929 22.092 12.8998 20.507 12.8786 18.4994C12.8786 16.6186 13.4294 14.9702 14.5945 13.5543C15.7385 12.1384 17.6028 11.441 20.1873 11.4199H35.9275C35.0166 7.97526 31.9025 5.46045 28.1739 5.46045H15.103C10.6754 5.46045 7.07397 9.05303 7.07397 13.4698Z" fill="#E6E6E6"/>
<path d="M18.3653 18.0557C17.878 18.7319 17.6238 19.4505 17.6238 20.2112C17.6238 20.655 17.6874 21.0777 17.8357 21.4792C17.9628 21.8807 18.3229 22.2611 18.8949 22.6838C19.4669 23.0853 20.2295 23.2755 21.1617 23.2755L31.0549 23.2966C31.0761 26.382 28.5763 28.8757 25.4833 28.8546L7.3916 28.77C8.3661 32.109 11.4591 34.5393 15.1028 34.5393H28.1738C32.6014 34.5393 36.2028 30.9467 36.2028 26.53V17.0625H21.1193C19.7847 17.0413 18.8737 17.3794 18.3653 18.0557Z" fill="#E6E6E6"/>
</svg>
