<svg width="28" height="29" viewBox="0 0 28 29" fill="none" xmlns="http://www.w3.org/2000/svg">
<path d="M0 24.9772C0 17.9837 0 10.9902 0 3.99675C0.127963 3.3583 0.344885 2.75749 0.726037 2.22237C1.41033 1.26231 2.35329 0.719659 3.49675 0.5C10.4902 0.5 17.4837 0.5 24.4772 0.5C24.5299 0.513002 24.5819 0.528056 24.6353 0.538321C26.5938 0.918789 27.9925 2.596 27.9932 4.5873C27.9966 11.225 27.9986 17.8626 27.9911 24.5003C27.9884 26.6326 26.1367 28.4808 24.0065 28.4911C21.8667 28.5021 19.7269 28.4904 17.5871 28.4993C17.3339 28.5 17.2381 28.4357 17.2388 28.1654C17.247 25.0785 17.2477 21.9917 17.2381 18.9055C17.2374 18.6174 17.34 18.5565 17.6028 18.5586C18.7593 18.5702 19.9157 18.5565 21.0715 18.5688C21.3179 18.5716 21.4102 18.4785 21.4472 18.2513C21.6785 16.8328 21.9139 15.4156 22.1561 13.9991C22.1972 13.7596 22.1363 13.6809 21.8824 13.683C20.444 13.6939 19.0049 13.683 17.5665 13.6925C17.3168 13.6939 17.2367 13.6138 17.2395 13.3648C17.2511 12.4635 17.2538 11.5616 17.2381 10.6604C17.2333 10.3805 17.3257 10.3053 17.5967 10.3073C19.0173 10.319 20.4372 10.3128 21.8578 10.3121C22.2068 10.3121 22.215 10.3039 22.215 9.96244C22.2157 8.56921 22.2102 7.17599 22.2198 5.78344C22.2218 5.52547 22.1493 5.43103 21.8797 5.43309C20.3865 5.44403 18.8934 5.43035 17.3996 5.44061C16.1254 5.44951 14.9806 5.82998 14.0205 6.69151C12.8873 7.70837 12.381 9.00237 12.3693 10.5051C12.3618 11.4337 12.368 12.3623 12.3673 13.2915C12.3673 13.6864 12.3659 13.6877 11.982 13.6877C11.1171 13.6884 10.2521 13.6932 9.38716 13.685C9.15998 13.683 9.08539 13.7664 9.08607 13.9895C9.09292 15.4101 9.0936 16.8307 9.08539 18.2506C9.08402 18.4888 9.16545 18.5695 9.4029 18.5668C10.2679 18.5565 11.1328 18.562 11.9978 18.5633C12.3645 18.564 12.3666 18.5654 12.3666 18.9212C12.3673 21.9896 12.3673 25.058 12.3666 28.1264C12.3666 28.4911 12.3645 28.4938 12.0073 28.4938C9.34884 28.4945 6.68967 28.4938 4.03118 28.4938C3.17376 28.4938 2.40256 28.227 1.708 27.735C0.753409 27.0589 0.218975 26.1145 0 24.9772Z" fill="white"/>
</svg>
