<svg width="200" height="200" viewBox="0 0 200 200" fill="none" xmlns="http://www.w3.org/2000/svg">
<g clip-path="url(#clip0_3290_21988)">
<rect width="200" height="200" rx="30" fill="#FFDD00"/>
<path d="M27.4707 67.3499V115.955L65.6059 116.484C59.6572 110.461 56.6829 102.536 56.5767 92.498C56.5767 83.0939 59.3386 74.8521 65.181 67.7726C70.9172 60.6931 80.2651 57.2062 93.2247 57.1005H172.151C167.583 39.8773 151.968 27.3032 133.272 27.3032H67.7304C45.5292 27.3032 27.4707 45.2661 27.4707 67.3499Z" fill="#202020"/>
<path d="M84.0896 90.279C81.6464 93.6602 80.3717 97.2528 80.3717 101.057C80.3717 103.276 80.6904 105.389 81.434 107.397C82.0713 109.404 83.8772 111.306 86.7453 113.419C89.6134 115.427 93.4375 116.378 98.1115 116.378L147.719 116.484C147.825 131.911 135.291 144.379 119.782 144.273L29.0645 143.851C33.9509 160.546 49.4599 172.697 67.7308 172.697H133.272C155.474 172.697 173.532 154.734 173.532 132.65V85.3128H97.899C91.2068 85.2071 86.639 86.8977 84.0896 90.279Z" fill="#202020"/>
</g>
<defs>
<clipPath id="clip0_3290_21988">
<rect width="200" height="200" rx="30" fill="white"/>
</clipPath>
</defs>
</svg>
