<svg width="205" height="64" viewBox="0 0 205 64" fill="none" xmlns="http://www.w3.org/2000/svg">
<g clip-path="url(#clip0_3726_30202)">
<path d="M95.807 51.7666H79.1953V22.2777H95.807V26.6559H84.6038V34.1247H95.807V38.503H84.6038V47.2595H95.807V51.7666ZM117.312 22.2777L129.03 51.7666H123.236L119.372 41.4648H109.457L105.465 51.7666H99.6702L111.775 22.2777H117.312ZM114.479 28.5875L111.131 37.0865H117.698L114.479 28.5875ZM133.924 51.7666V22.2777H144.097C147.058 22.2777 149.505 23.0503 151.437 24.5956C153.368 26.1408 154.27 28.2012 154.27 30.7766C154.27 33.0946 153.497 34.8974 151.952 36.3139C150.407 37.7304 148.217 38.503 145.642 38.6318L154.914 51.6378H148.604L139.461 37.9879V51.6378H133.924V51.7666ZM143.71 26.9135H139.332V34.8974H143.71C145.127 34.8974 146.286 34.5111 147.187 33.8672C148.089 33.2233 148.475 32.1931 148.475 30.9054C148.475 29.6177 148.089 28.7163 147.187 27.9437C146.286 27.171 145.256 26.9135 143.71 26.9135ZM178.865 30.004H173.714C173.714 28.8451 173.328 27.8149 172.555 27.171C171.783 26.5272 170.753 26.1408 169.594 26.1408C168.306 26.1408 167.276 26.5272 166.503 27.171C165.731 27.8149 165.344 28.7163 165.344 29.7465C165.344 30.7766 165.731 31.5493 166.374 32.1931C167.018 32.837 168.177 33.3521 169.722 33.7384L171.268 34.1247C174.358 34.8974 176.805 35.9276 178.479 37.2153C180.153 38.503 180.926 40.5634 180.926 43.3964C180.926 46.1006 179.896 48.2897 177.835 49.9638C175.775 51.6378 173.071 52.5392 169.851 52.5392C166.632 52.5392 163.928 51.6378 161.867 49.835C159.807 48.0322 158.777 45.7143 158.777 42.6237H163.928C163.928 44.169 164.443 45.4567 165.602 46.4869C166.761 47.5171 168.177 48.0322 169.851 48.0322C171.654 48.0322 173.071 47.6459 174.101 46.7445C175.131 45.843 175.646 44.6841 175.646 43.2676C175.646 41.9799 175.131 40.9497 174.23 40.1771C173.328 39.4044 171.783 38.8893 169.722 38.3742L168.306 37.9879C162.898 36.7002 160.193 33.8672 160.193 29.6177C160.193 27.2998 161.095 25.3682 162.898 23.8229C164.7 22.4064 166.889 21.6338 169.722 21.6338C172.684 21.6338 175.002 22.4064 176.547 23.8229C178.093 25.2394 178.865 27.2998 178.865 30.004Z" fill="#202020"/>
<path d="M36.9578 8.75661C38.503 8.24152 40.1771 7.8552 41.8511 7.59766L43.9115 12.491C44.8129 12.3622 45.7143 12.3622 46.6157 12.3622C47.5171 12.3622 48.4185 12.491 49.3199 12.6198L51.6378 7.8552C53.3119 8.24152 54.9859 8.62784 56.5312 9.2717L55.8873 14.5514C57.5614 15.324 58.9779 16.2254 60.3944 17.3844L64.9014 14.4226C66.1892 15.5816 67.3481 16.7405 68.3783 18.157L65.159 22.4065C66.1892 23.823 66.9618 25.3683 67.7344 27.0423L73.1429 26.656C73.658 28.2013 74.0443 29.8753 74.3018 31.5494L69.4085 33.6097C69.5372 34.5111 69.5372 35.4125 69.5372 36.314C69.5372 37.2154 69.4085 38.1168 69.2797 39.0182L74.0443 41.3361C73.658 43.0101 73.2716 44.6842 72.6278 46.2294L67.3481 45.5856C66.5755 47.2596 65.6741 48.6761 64.5151 50.0926L67.4769 54.5997C66.3179 55.8874 65.159 57.0463 63.7425 58.0765L59.493 54.8572C58.0765 55.8874 56.5312 56.66 54.8572 57.4327L55.2435 62.8411C53.6982 63.3562 52.0242 63.7425 50.3501 64.0001L48.2898 59.1067C47.3883 59.2355 46.4869 59.2355 45.5855 59.2355C44.6841 59.2355 43.7827 59.1067 42.8813 58.9779L40.5634 63.7425C38.8894 63.3562 37.2153 62.9699 35.67 62.326L36.3139 57.0463C34.6399 56.2737 33.2234 55.3723 31.8069 54.2133L27.2998 57.1751C26.0121 56.0162 24.8531 54.8572 23.823 53.4407L27.0423 49.1912C26.0121 47.7747 25.2395 46.2294 24.4668 44.5554L19.0584 44.9417C18.5433 43.3965 18.157 41.7224 17.8994 40.0484L22.7928 37.988C22.664 37.0866 22.664 36.1852 22.664 35.2838C22.664 34.3824 22.7928 33.481 22.9215 32.5795L18.157 30.2616C18.5433 28.5876 18.9296 26.9136 19.5735 25.3683L24.8531 26.0121C25.6258 24.3381 26.5272 22.9216 27.6861 21.5051L24.7244 16.9981C25.8833 15.7103 27.0423 14.5514 28.4588 13.5212L32.7083 16.7405C34.1248 15.7103 35.67 14.9377 37.3441 14.1651L36.9578 8.75661ZM63.6137 35.7989H47.2596L48.161 41.0785H56.2737C55.3723 43.0101 53.9558 44.4266 52.1529 45.5856C50.3501 46.7445 48.2898 47.2596 46.1006 47.2596C44.5553 47.2596 43.0101 47.0021 41.5936 46.3582C40.1771 45.7144 39.0181 44.9417 37.8592 43.9115C36.829 42.8814 36.0564 41.5936 35.4125 40.1771C34.7686 38.7606 34.5111 37.2154 34.5111 35.6701C34.5111 34.1248 34.7686 32.5795 35.4125 31.163C36.0564 29.7465 36.829 28.5876 37.8592 27.4286C38.8894 26.3985 40.1771 25.6258 41.5936 24.982C43.0101 24.3381 44.5553 24.0806 46.1006 24.0806C47.9034 24.0806 49.5775 24.4669 51.1228 25.2395C52.668 26.0121 53.9558 27.0423 54.9859 28.33L59.3642 23.9518C57.6902 22.149 55.7586 20.7325 53.5694 19.5735C51.2515 18.5433 48.8048 17.8995 46.2294 17.8995C43.7827 17.8995 41.4648 18.4146 39.4044 19.316C37.2153 20.2174 35.4125 21.5051 33.8672 23.0504C32.3219 24.5956 31.0342 26.5272 30.1328 28.5876C29.2314 30.648 28.7163 32.9659 28.7163 35.4125C28.7163 37.8592 29.2314 40.1771 30.1328 42.2375C31.0342 44.2979 32.3219 46.2294 33.8672 47.7747C35.4125 49.32 37.3441 50.6077 39.4044 51.5091C41.5936 52.4105 43.7827 52.9256 46.2294 52.9256C48.6761 52.9256 50.994 52.4105 53.0543 51.5091C55.2435 50.6077 57.0463 49.32 58.5916 47.7747C60.1368 46.2294 61.4246 44.2979 62.326 42.2375C63.2274 40.1771 63.6137 38.1168 63.6137 35.7989Z" fill="#202020"/>
<path d="M9.4004 2.57545L7.9839 0.643863L5.666 1.67404L6.30986 3.99195V4.12072C5.666 4.63581 5.15091 5.15091 4.63581 5.79477L2.18913 4.76459L0.901408 6.82495L2.70423 8.37022H2.833C2.57545 9.01408 2.44668 9.65795 2.31791 10.3018L0 10.8169V13.2636L2.06036 13.3924H2.18913C2.31791 13.9074 2.44668 14.5513 2.57545 15.0664V15.1952L0.643863 16.7404L1.80282 18.9296L4.12072 18.1569H4.2495C4.63581 18.5433 4.89336 18.9296 5.27968 19.3159L4.37827 21.6338L6.43863 22.9215L8.11268 21.1187C8.62777 21.3763 9.14286 21.505 9.65795 21.6338L9.91549 24.0805L12.3622 24.2093L12.8773 21.8913C13.3924 21.8913 13.9074 21.7626 14.4225 21.6338L15.839 23.5654L18.1569 22.5352L17.6418 20.2173C18.2857 19.7022 18.9296 19.1871 19.4447 18.672L21.6338 19.4447L22.9215 17.5131L21.1187 15.9678C21.3763 15.3239 21.505 14.6801 21.6338 14.0362L24.0805 13.5211V10.9457L21.6338 10.5594C21.505 10.0443 21.3763 9.52917 21.2475 9.01408L23.1791 7.46881L22.0201 5.27968L19.7022 6.05231C19.3159 5.666 18.9296 5.27968 18.5433 4.89336L19.4447 2.57545L17.3843 1.28773L15.7103 3.09054C15.1952 2.833 14.6801 2.70423 14.165 2.57545L13.9074 0.128773L11.4608 0L10.9457 2.31791C10.4306 2.31791 9.91549 2.44668 9.4004 2.57545ZM11.9759 5.666C14.5513 5.666 16.998 7.21127 18.0282 9.52917C19.0583 11.9759 18.5433 14.6801 16.6117 16.4829C14.8089 18.2857 11.9759 18.9296 9.52917 17.8994C7.08249 16.8692 5.53722 14.5513 5.53722 11.9759C5.53722 8.49899 8.49899 5.666 11.9759 5.666Z" fill="#202020"/>
<path d="M7.72646 29.1022L6.56751 28.3296L5.53733 29.3598L6.30996 30.5187C6.05242 30.905 5.79487 31.2914 5.6661 31.6777H4.2496L3.86328 33.0942L5.15101 33.6093C5.15101 33.9956 5.15101 34.3819 5.27978 34.7682L4.12083 35.4121L4.50714 36.8286L5.6661 36.571C5.79487 36.8286 5.92364 37.0861 6.18119 37.3437V37.4724L5.40855 38.6314L6.43873 39.6616L7.59769 38.7602C7.85523 38.8889 8.11278 39.0177 8.37032 39.1465L8.24155 40.563L9.65805 40.9493L10.3019 39.6616C10.5595 39.6616 10.9458 39.6616 11.2033 39.6616L11.8472 40.9493L13.2637 40.563L13.1349 39.1465C13.3925 39.0177 13.65 38.8889 13.9075 38.7602L15.0665 39.5328L16.0967 38.5026L15.324 37.3437C15.5816 36.9574 15.8391 36.571 15.9679 36.1847H17.3844L17.7707 34.7682L16.483 34.2531C16.483 33.8668 16.483 33.4805 16.483 33.0942L17.7707 32.4503L17.3844 31.0338L15.9679 31.2914C15.8391 31.0338 15.7104 30.7763 15.4528 30.5187L16.2255 29.3598L15.1953 28.3296L14.0363 29.1022C13.7788 28.9734 13.5212 28.8447 13.2637 28.7159L13.3925 27.2994L11.976 26.9131L11.3321 28.2008C11.0745 28.2008 10.6882 28.2008 10.4307 28.2008L9.78682 26.9131L8.37032 27.2994L8.4991 28.7159C8.24155 28.7159 7.98401 28.8447 7.72646 29.1022ZM9.65805 30.0036C11.8472 29.3598 14.0363 30.3899 14.809 32.5791C15.4528 34.6394 14.2939 36.9574 12.2335 37.6012C10.0444 38.2451 7.85523 37.2149 7.0826 35.0258C6.30996 32.9654 7.46892 30.7763 9.65805 30.0036Z" fill="#202020"/>
<path d="M190.944 14.5518V15.8781H187.415V25.5747H185.832V15.8781H182.303V14.5518H190.944Z" fill="#202020"/>
<path d="M198.349 22.3167C198.4 22.1622 198.465 22.0206 198.516 21.8789C198.568 21.7373 198.645 21.5956 198.709 21.4668L202.366 14.8222C202.431 14.6934 202.508 14.6161 202.585 14.5904C202.663 14.5646 202.778 14.5518 202.907 14.5518H204.079V25.5747H202.688V17.6552C202.688 17.5393 202.688 17.4234 202.701 17.2946C202.714 17.1658 202.714 17.0371 202.727 16.9083L199.031 23.6817C198.98 23.7976 198.902 23.8878 198.799 23.9522C198.696 24.0165 198.593 24.0423 198.465 24.0423H198.246C197.988 24.0423 197.795 23.9264 197.666 23.6817L193.893 16.8825C193.906 17.0242 193.919 17.153 193.919 17.2946C193.932 17.4234 193.932 17.5522 193.932 17.6681V25.5876H192.541V14.5518H193.713C193.854 14.5518 193.958 14.5646 194.035 14.5904C194.112 14.6161 194.189 14.6934 194.254 14.8222L197.975 21.4926C198.117 21.7501 198.233 22.0206 198.349 22.3167Z" fill="#202020"/>
</g>
<defs>
<clipPath id="clip0_3726_30202">
<rect width="204.092" height="64" fill="white"/>
</clipPath>
</defs>
</svg>
