<svg width="105" height="52" viewBox="0 0 105 52" fill="none" xmlns="http://www.w3.org/2000/svg">
<path d="M28.4481 36.3345C28.4481 36.4168 28.3931 36.4991 28.3105 36.5539C27.7874 36.7459 27.3193 36.9105 26.9339 37.0477C26.5209 37.1848 26.1079 37.3219 25.7225 37.4317C25.337 37.5414 24.7864 37.706 24.043 37.8705C22.8041 38.1448 21.5651 38.3642 20.3262 38.5288C19.0872 38.666 17.7932 38.7483 16.4166 38.7483C13.6634 38.7483 11.103 38.2545 8.73521 37.2397C6.39499 36.2248 4.52282 34.6613 3.09116 32.5493C1.65949 30.4372 0.971191 27.8589 0.971191 24.7868C0.971191 22.8119 1.32911 20.8645 2.07247 18.9444C2.7883 17.0244 3.91712 15.4884 5.40384 14.3638C6.64278 13.4038 7.88172 12.6906 9.14819 12.1695C10.4147 11.6757 11.6536 11.3192 12.865 11.1546C14.0764 10.99 15.398 10.9077 16.8572 10.9077C19.2524 10.9077 21.2347 11.0997 22.8041 11.4563C24.3183 11.8129 25.9702 12.2517 27.7874 12.8278C27.87 12.8552 27.9525 12.9375 27.9525 13.0472V18.917C27.9525 19.0816 27.7598 19.1913 27.6222 19.109C26.4934 18.4781 25.2819 17.9296 24.043 17.4907C22.6664 16.997 20.9594 16.7775 18.8945 16.7775C16.5268 16.7775 14.6271 17.2164 13.1954 18.1216C11.7637 19.0267 10.7726 20.0965 10.2219 21.3308C9.6713 22.5651 9.39598 23.772 9.39598 24.924C9.39598 26.2954 9.72637 27.5572 10.3596 28.7092C10.9928 29.8612 11.984 30.7938 13.278 31.4795C14.572 32.1653 16.1413 32.5218 17.986 32.5218C18.9771 32.5218 20.0509 32.3847 21.1521 32.1378C21.2623 32.1104 21.3173 32.0281 21.3173 31.9184V29.1206C21.3173 29.0109 21.2072 28.9012 21.0971 28.9012H17.7932C17.6831 28.9012 17.573 28.7915 17.573 28.6818V23.6622C17.573 23.5525 17.6831 23.4428 17.7932 23.4428H28.2279C28.338 23.4428 28.4481 23.5525 28.4481 23.6622V36.3345Z" fill="white"/>
<path d="M59.7245 38.419H50.2535C50.1984 38.419 50.1158 38.3915 50.0883 38.3367L40.1217 26.1856C39.9841 26.021 39.7363 26.1307 39.7363 26.3227V38.1995C39.7363 38.3093 39.6261 38.419 39.516 38.419H31.752C31.6419 38.419 31.5317 38.3093 31.5317 38.1995V11.4836C31.5317 11.3739 31.6419 11.2642 31.752 11.2642H39.516C39.6261 11.2642 39.7363 11.3739 39.7363 11.4836V22.7844C39.7363 23.0038 40.0116 23.0861 40.1217 22.9215L49.5377 11.3464C49.5927 11.2916 49.6478 11.2642 49.7029 11.2642H58.0726C58.2653 11.2642 58.3754 11.4836 58.2378 11.6207L48.4914 23.8267C48.4364 23.909 48.4364 24.0187 48.4914 24.101L59.8897 38.035C59.9998 38.1995 59.8897 38.419 59.7245 38.419Z" fill="white"/>
<path d="M69.1954 38.419H62.5602C62.2023 38.419 61.8994 38.0898 61.8994 37.6784V12.0047C61.8994 11.5933 62.2023 11.2642 62.5602 11.2642H69.1954C69.5533 11.2642 69.8562 11.5933 69.8562 12.0047V37.6784C69.8286 38.0898 69.5533 38.419 69.1954 38.419Z" fill="white"/>
<path d="M104.712 38.419H96.9478C96.8377 38.419 96.7276 38.3093 96.7276 38.1995V23.3055C96.7276 23.0861 96.4523 23.0038 96.3421 23.1684L89.5417 31.5343C89.4041 31.6988 89.2113 31.7811 89.0186 31.7811C88.8259 31.7811 88.6332 31.6988 88.4955 31.5343L81.6676 23.1684C81.5299 23.0038 81.2821 23.0861 81.2821 23.3055V38.1995C81.2821 38.3093 81.172 38.419 81.0619 38.419H73.5181C73.408 38.419 73.2979 38.3093 73.2979 38.1995V11.4836C73.2979 11.3739 73.408 11.2642 73.5181 11.2642H80.6489C80.704 11.2642 80.7866 11.2916 80.8141 11.3464L88.9636 21.2484C89.0462 21.3581 89.2113 21.3581 89.2939 21.2484L97.4709 11.3464C97.526 11.2916 97.5811 11.2642 97.6361 11.2642H104.767C104.877 11.2642 104.987 11.3739 104.987 11.4836V38.1995C104.932 38.3093 104.822 38.419 104.712 38.419Z" fill="white"/>
<path d="M61.8994 2.54198V5.17518L63.9643 5.20261C63.6339 4.87346 63.4687 4.43459 63.4687 3.88601C63.4687 3.36486 63.6339 2.92599 63.9368 2.54198C64.2396 2.15798 64.7627 1.96597 65.451 1.96597H69.746C69.4982 1.03338 68.6448 0.347656 67.6261 0.347656H64.0744C62.8906 0.347656 61.8994 1.3351 61.8994 2.54198Z" fill="#FFD400"/>
<path d="M64.9832 3.77641C64.8456 3.96842 64.7905 4.16042 64.7905 4.35243C64.7905 4.46214 64.818 4.59929 64.8456 4.68158C64.8731 4.79129 64.9832 4.90101 65.1209 5.01072C65.2861 5.12044 65.4788 5.1753 65.7541 5.1753H68.4523C68.4523 6.0256 67.764 6.6839 66.938 6.6839L62.0098 6.65647C62.2851 7.56163 63.111 8.21993 64.1022 8.21993H67.6538C68.8652 8.21993 69.8564 7.23248 69.8564 6.0256V3.44727H65.7541C65.3687 3.50212 65.1209 3.58441 64.9832 3.77641Z" fill="#FFD400"/>
<path d="M12.8649 45.4958C12.562 45.3587 12.1215 45.2764 11.5709 45.2764H9.91895V51.9416H11.6259C12.149 51.9416 12.562 51.8594 12.8649 51.6948C13.1677 51.5302 13.4155 51.2833 13.5532 50.9268C13.6908 50.5976 13.7459 50.1862 13.7459 49.7199V47.3884C13.7459 46.9221 13.6908 46.5107 13.5532 46.209C13.4155 45.9072 13.1677 45.6604 12.8649 45.4958ZM11.3781 46.3735H11.5709C11.8462 46.3735 11.9838 46.4284 12.0664 46.4558C12.149 46.5107 12.2041 46.593 12.2316 46.7301C12.2592 46.8673 12.2867 47.0867 12.2867 47.3336V49.7747C12.2867 50.0216 12.2867 50.241 12.2592 50.433C12.2316 50.5702 12.1766 50.6799 12.094 50.7622C12.0114 50.8445 11.8462 50.8719 11.5984 50.8719H11.3781V46.3735V46.3735Z" fill="white"/>
<path d="M27.5396 45.2764H26.1079V51.9416H27.5396V45.2764Z" fill="white"/>
<path d="M41.7734 49.4182H42.4617V49.8845C42.4617 50.1039 42.4341 50.2959 42.4066 50.4605C42.3791 50.5976 42.324 50.7074 42.2414 50.7896C42.1588 50.8719 42.0487 50.8994 41.911 50.8994C41.7734 50.8994 41.6357 50.8719 41.5806 50.7896C41.498 50.7348 41.443 50.6251 41.4154 50.4879C41.3879 50.3233 41.3604 50.1588 41.3604 49.9393V47.2513C41.3604 47.0593 41.3604 46.8947 41.3879 46.7301C41.4154 46.593 41.443 46.4833 41.5256 46.401C41.5806 46.3187 41.7183 46.2913 41.8835 46.2913C42.0487 46.2913 42.1588 46.3187 42.2139 46.3736C42.2689 46.4284 42.324 46.5107 42.3515 46.6204C42.3791 46.7576 42.3791 46.9221 42.3791 47.1141V47.6079H43.7832V47.1416C43.7832 46.7301 43.7281 46.3736 43.5905 46.0718C43.4528 45.7701 43.2601 45.5233 42.9848 45.3587C42.7094 45.1941 42.324 45.1118 41.8835 45.1118C41.3879 45.1118 41.0025 45.2215 40.6996 45.3861C40.3968 45.5781 40.204 45.8524 40.0939 46.209C39.9838 46.5656 39.9287 46.977 39.9287 47.4433V49.5828C39.9287 50.0491 39.9838 50.4605 40.0939 50.7896C40.204 51.1462 40.3968 51.4205 40.6721 51.6125C40.9474 51.8045 41.3053 51.9142 41.7734 51.9142C42.1037 51.9142 42.3515 51.8319 42.5718 51.6948C42.6544 51.6399 42.737 51.5577 42.792 51.4754L42.8471 51.8319H43.8658V48.321H41.856V49.4182H41.7734Z" fill="white"/>
<path d="M57.5493 45.2764H56.1177V51.9416H57.5493V45.2764Z" fill="white"/>
<path d="M70.104 46.401H71.1227V51.9416H72.5819V46.401H73.6006V45.2764H70.104V46.401Z" fill="white"/>
<path d="M86.1 45.2764L84.751 51.9416H86.1276L86.4029 50.4605H87.2839L87.5317 51.9416H88.9083L87.5592 45.2764H86.1ZM87.1463 49.4456H86.5956L86.8709 47.745L87.1463 49.4456Z" fill="white"/>
<path d="M101.793 50.8719V45.2764H100.362V51.9416H103.363V50.8719H101.793Z" fill="white"/>
</svg>
