<svg width="111" height="64" viewBox="0 0 111 64" fill="none" xmlns="http://www.w3.org/2000/svg">
<path d="M29.3087 43.0242C29.3087 43.112 29.25 43.1998 29.1619 43.2583C28.6039 43.4631 28.1047 43.6387 27.6935 43.7849C27.253 43.9312 26.8125 44.0775 26.4013 44.1945C25.9902 44.3116 25.4029 44.4871 24.6099 44.6627C23.2884 44.9553 21.9669 45.1893 20.6453 45.3649C19.3238 45.5111 17.9435 45.5989 16.4751 45.5989C13.5384 45.5989 10.8072 45.0723 8.28162 43.9897C5.78539 42.9072 3.7884 41.2395 2.26129 38.9867C0.734187 36.7338 0 33.9836 0 30.7067C0 28.6002 0.381777 26.5229 1.1747 24.4749C1.93825 22.4268 3.14232 20.7884 4.72816 19.5888C6.0497 18.5648 7.37123 17.8041 8.72214 17.2482C10.073 16.7216 11.3946 16.3412 12.6867 16.1657C13.9789 15.9901 15.3885 15.9023 16.945 15.9023C19.5 15.9023 21.6145 16.1071 23.2884 16.4875C24.9036 16.8678 26.6657 17.336 28.6039 17.9504C28.692 17.9796 28.7801 18.0674 28.7801 18.1844V24.4456C28.7801 24.6211 28.5745 24.7382 28.4277 24.6504C27.2236 23.9775 25.9315 23.3923 24.6099 22.9242C23.1416 22.3976 21.3208 22.1635 19.1182 22.1635C16.5926 22.1635 14.5663 22.6316 13.0392 23.5971C11.512 24.5626 10.4548 25.7037 9.86747 27.0203C9.28012 28.3369 8.98644 29.6242 8.98644 30.853C8.98644 32.3159 9.33885 33.6618 10.0143 34.8906C10.6898 36.1194 11.747 37.1142 13.1273 37.8456C14.5075 38.5771 16.1815 38.9574 18.1491 38.9574C19.2063 38.9574 20.3517 38.8111 21.5264 38.5478C21.6438 38.5186 21.7026 38.4308 21.7026 38.3138V35.3295C21.7026 35.2124 21.5851 35.0954 21.4676 35.0954H17.9435C17.826 35.0954 17.7086 34.9784 17.7086 34.8613V29.5072C17.7086 29.3901 17.826 29.2731 17.9435 29.2731H29.0738C29.1913 29.2731 29.3087 29.3901 29.3087 29.5072V43.0242Z" fill="#1D1D1D"/>
<path d="M62.6699 45.2474H52.5675C52.5088 45.2474 52.4207 45.2181 52.3913 45.1596L41.7603 32.1984C41.6135 32.0229 41.3492 32.1399 41.3492 32.3447V45.0133C41.3492 45.1303 41.2317 45.2474 41.1142 45.2474H32.8326C32.7151 45.2474 32.5977 45.1303 32.5977 45.0133V16.5163C32.5977 16.3993 32.7151 16.2822 32.8326 16.2822H41.1142C41.2317 16.2822 41.3492 16.3993 41.3492 16.5163V28.5705C41.3492 28.8045 41.6428 28.8923 41.7603 28.7168L51.804 16.37C51.8627 16.3115 51.9214 16.2822 51.9802 16.2822H60.9079C61.1135 16.2822 61.2309 16.5163 61.0841 16.6626L50.688 29.6823C50.6293 29.77 50.6293 29.8871 50.688 29.9748L62.8461 44.8378C62.9636 45.0133 62.8461 45.2474 62.6699 45.2474Z" fill="#1D1D1D"/>
<path d="M72.7726 45.2474H65.6951C65.3133 45.2474 64.9902 44.8963 64.9902 44.4574V17.0722C64.9902 16.6333 65.3133 16.2822 65.6951 16.2822H72.7726C73.1544 16.2822 73.4774 16.6333 73.4774 17.0722V44.4574C73.4481 44.8963 73.1544 45.2474 72.7726 45.2474Z" fill="#1D1D1D"/>
<path d="M110.657 45.2474H102.375C102.258 45.2474 102.14 45.1303 102.14 45.0133V29.1264C102.14 28.8923 101.846 28.8045 101.729 28.9801L94.4752 37.9037C94.3284 38.0792 94.1228 38.167 93.9173 38.167C93.7117 38.167 93.5061 38.0792 93.3593 37.9037L86.0761 28.9801C85.9293 28.8045 85.665 28.8923 85.665 29.1264V45.0133C85.665 45.1303 85.5475 45.2474 85.4301 45.2474H77.3834C77.2659 45.2474 77.1484 45.1303 77.1484 45.0133V16.5163C77.1484 16.3993 77.2659 16.2822 77.3834 16.2822H84.9895C85.0483 16.2822 85.1364 16.3115 85.1658 16.37L93.8585 26.932C93.9466 27.0491 94.1228 27.0491 94.2109 26.932L102.933 16.37C102.992 16.3115 103.051 16.2822 103.109 16.2822H110.715C110.833 16.2822 110.95 16.3993 110.95 16.5163V45.0133C110.892 45.1303 110.774 45.2474 110.657 45.2474Z" fill="#1D1D1D"/>
<path d="M64.9902 6.97831V9.78705L67.1928 9.81631C66.8404 9.46522 66.6642 8.99709 66.6642 8.41194C66.6642 7.85604 66.8404 7.38792 67.1634 6.97831C67.4865 6.5687 68.0444 6.3639 68.7786 6.3639H73.36C73.0957 5.36914 72.1853 4.6377 71.0987 4.6377H67.3103C66.0475 4.6377 64.9902 5.69097 64.9902 6.97831Z" fill="#FFD400"/>
<path d="M68.2796 8.29445C68.1328 8.49926 68.074 8.70406 68.074 8.90886C68.074 9.02589 68.1034 9.17218 68.1328 9.25996C68.1621 9.37699 68.2796 9.49402 68.4264 9.61105C68.6026 9.72808 68.8082 9.7866 69.1019 9.7866H71.9799C71.9799 10.6936 71.2457 11.3958 70.3647 11.3958L65.1079 11.3665C65.4016 12.332 66.2826 13.0342 67.3398 13.0342H71.1282C72.4204 13.0342 73.4776 11.9809 73.4776 10.6936V7.94336H69.1019C68.6907 8.00187 68.4264 8.08965 68.2796 8.29445Z" fill="#FFD400"/>
<path d="M12.6868 52.7966C12.3637 52.6503 11.8938 52.5625 11.3065 52.5625H9.54443V59.6721H11.3652C11.9232 59.6721 12.3637 59.5844 12.6868 59.4088C13.0098 59.2333 13.2741 58.9699 13.4209 58.5896C13.5678 58.2385 13.6265 57.7996 13.6265 57.3022V54.8153C13.6265 54.318 13.5678 53.8791 13.4209 53.5573C13.2741 53.2354 13.0098 52.9721 12.6868 52.7966ZM11.1009 53.7328H11.3065C11.6002 53.7328 11.747 53.7913 11.8351 53.8206C11.9232 53.8791 11.9819 53.9669 12.0113 54.1132C12.0407 54.2594 12.07 54.4935 12.07 54.7568V57.3608C12.07 57.6241 12.07 57.8581 12.0407 58.063C12.0113 58.2092 11.9526 58.3263 11.8645 58.414C11.7764 58.5018 11.6002 58.5311 11.3358 58.5311H11.1009V53.7328Z" fill="#1D1D1D"/>
<path d="M28.3396 52.5625H26.8125V59.6721H28.3396V52.5625Z" fill="#1D1D1D"/>
<path d="M43.5228 56.9802H44.257V57.4776C44.257 57.7116 44.2276 57.9164 44.1982 58.092C44.1689 58.2383 44.1101 58.3553 44.022 58.4431C43.9339 58.5308 43.8165 58.5601 43.6696 58.5601C43.5228 58.5601 43.376 58.5308 43.3172 58.4431C43.2291 58.3845 43.1704 58.2675 43.141 58.1212C43.1117 57.9457 43.0823 57.7701 43.0823 57.5361V54.6688C43.0823 54.464 43.0823 54.2885 43.1117 54.1129C43.141 53.9666 43.1704 53.8496 43.2585 53.7618C43.3172 53.6741 43.4641 53.6448 43.6403 53.6448C43.8165 53.6448 43.9339 53.6741 43.9927 53.7326C44.0514 53.7911 44.1101 53.8789 44.1395 53.9959C44.1689 54.1422 44.1689 54.3177 44.1689 54.5225V55.0492H45.6666V54.5518C45.6666 54.1129 45.6079 53.7326 45.4611 53.4107C45.3142 53.0889 45.1086 52.8256 44.815 52.65C44.5213 52.4745 44.1101 52.3867 43.6403 52.3867C43.1117 52.3867 42.7005 52.5037 42.3775 52.6793C42.0544 52.8841 41.8489 53.1767 41.7314 53.557C41.6139 53.9374 41.5552 54.3762 41.5552 54.8736V57.1557C41.5552 57.6531 41.6139 58.092 41.7314 58.4431C41.8489 58.8234 42.0544 59.116 42.3481 59.3208C42.6418 59.5256 43.0235 59.6426 43.5228 59.6426C43.8752 59.6426 44.1395 59.5549 44.3745 59.4086C44.4626 59.35 44.5507 59.2623 44.6094 59.1745L44.6681 59.5549H45.7547V55.8099H43.6109V56.9802H43.5228Z" fill="#1D1D1D"/>
<path d="M60.3504 52.5625H58.8232V59.6721H60.3504V52.5625Z" fill="#1D1D1D"/>
<path d="M73.7417 53.7621H74.8283V59.6721H76.3848V53.7621H77.4714V52.5625H73.7417V53.7621Z" fill="#1D1D1D"/>
<path d="M90.8042 52.5625L89.3652 59.6721H90.8336L91.1273 58.0922H92.067L92.3313 59.6721H93.7997L92.3607 52.5625H90.8042ZM91.9202 57.0097H91.3329L91.6265 55.1957L91.9202 57.0097Z" fill="#1D1D1D"/>
<path d="M107.544 58.5311V52.5625H106.017V59.6721H109.218V58.5311H107.544Z" fill="#1D1D1D"/>
</svg>
