<svg width="28" height="29" viewBox="0 0 28 29" fill="none" xmlns="http://www.w3.org/2000/svg">
<path d="M25.9239 28.5002C17.9818 28.5002 10.0397 28.5002 2.09832 28.5002C1.99466 28.4659 1.89172 28.4316 1.78805 28.3965C0.728764 28.0395 0.00310267 27.0613 0.00237263 25.9626C-0.000547531 18.3241 -0.00127757 10.6864 0.00310268 3.04876C0.00383272 1.6646 1.1646 0.503103 2.54876 0.502373C10.1864 0.498722 17.8249 0.500183 25.4626 0.500913C26.1532 0.500913 26.735 0.768108 27.2336 1.23387C27.633 1.60692 27.8447 2.08656 28.0009 2.59759C28.0009 10.5397 28.0009 18.4818 28.0009 26.4232C27.9403 26.5933 27.8878 26.7671 27.8169 26.9328C27.4541 27.7782 26.7861 28.2578 25.9239 28.5002ZM11.245 17.4036C11.245 19.079 11.2443 20.7537 11.245 22.4292C11.245 23.0658 11.4151 23.2322 12.0605 23.2329C12.7525 23.2337 13.4446 23.2344 14.136 23.2322C14.7003 23.2307 14.8704 23.0621 14.8704 22.5014C14.8711 20.7442 14.8646 18.987 14.874 17.2305C14.8777 16.556 15.0274 15.9092 15.4062 15.3383C15.8297 14.6995 16.4458 14.4476 17.1927 14.5141C17.9716 14.5834 18.4834 15.0061 18.733 15.7464C18.8798 16.1815 18.9426 16.6312 18.9433 17.0882C18.9455 18.8906 18.9433 20.6931 18.944 22.4956C18.944 23.0606 19.0849 23.2008 19.6587 23.2023C20.4238 23.2045 21.1882 23.2045 21.9533 23.2023C22.5037 23.2001 22.6723 23.0344 22.6745 22.4868C22.6818 20.3478 22.6811 18.2081 22.6198 16.0698C22.595 15.2025 22.4402 14.3505 22.0847 13.5482C21.7233 12.7342 21.1619 12.11 20.334 11.756C19.3273 11.3252 18.279 11.326 17.2226 11.5041C16.3297 11.6552 15.6114 12.1027 15.0726 12.835C15.0412 12.878 15.0054 12.9386 14.9463 12.9211C14.8711 12.8992 14.8806 12.8196 14.8792 12.7583C14.8755 12.567 14.8784 12.3758 14.8748 12.1845C14.8667 11.7435 14.701 11.5771 14.2579 11.5756C13.5111 11.5727 12.765 11.5742 12.0181 11.5749C11.4049 11.5756 11.245 11.7341 11.245 12.3502C11.245 14.0351 11.245 15.7194 11.245 17.4036ZM9.51773 17.4072C9.51773 15.6953 9.51919 13.9833 9.517 12.2714C9.51627 11.7567 9.33741 11.5771 8.83076 11.5749C8.10218 11.572 7.3736 11.5727 6.64502 11.5742C6.08508 11.5756 5.89015 11.7691 5.89015 12.329C5.88942 15.7077 5.88942 19.0863 5.89015 22.4649C5.89015 23.0132 6.1026 23.2293 6.64794 23.2315C7.35827 23.2344 8.0686 23.2344 8.77893 23.2315C9.31843 23.2293 9.51773 23.0285 9.51773 22.4883C9.51846 20.7953 9.51773 19.1016 9.51773 17.4072ZM10.0587 8.14006C10.058 6.85373 8.99356 5.79006 7.70796 5.79152C6.42455 5.79225 5.37475 6.85227 5.37402 8.14955C5.37329 9.45706 6.40848 10.5017 7.70431 10.5025C9.01327 10.5032 10.0602 9.45268 10.0587 8.14006Z" fill="white"/>
</svg>
