<svg width="200" height="150" viewBox="0 0 200 150" fill="none" xmlns="http://www.w3.org/2000/svg">
<g filter="url(#filter0_d_3726_30183)">
<circle cx="75.0732" cy="73" r="18.3411" fill="white" fill-opacity="0.0536768" stroke="white" stroke-width="0.464331"/>
<path d="M81.277 71.7283L73.3115 66.275C72.9436 66.023 72.5729 65.8896 72.2648 65.8896C71.6692 65.8896 71.3008 66.3677 71.3008 67.1678V78.9538C71.3008 79.7531 71.6688 80.2302 72.263 80.2302C72.5715 80.2302 72.9363 80.0967 73.3049 79.844L81.2743 74.3908C81.7868 74.0396 82.0706 73.5669 82.0706 73.0593C82.0707 72.552 81.7901 72.0794 81.277 71.7283Z" fill="white"/>
</g>
<path d="M107.206 64.84H111.826C112.64 64.84 113.373 64.9133 114.026 65.06C114.68 65.2067 115.24 65.4467 115.706 65.78C116.173 66.1133 116.533 66.54 116.786 67.06C117.04 67.58 117.166 68.2067 117.166 68.94C117.166 69.7267 117.02 70.3867 116.726 70.92C116.433 71.4533 116.033 71.8867 115.526 72.22C115.033 72.54 114.453 72.7733 113.786 72.92C113.12 73.0667 112.413 73.14 111.666 73.14H109.726V79H107.206V64.84ZM111.486 71.02C111.9 71.02 112.293 70.9933 112.666 70.94C113.04 70.8733 113.373 70.7667 113.666 70.62C113.96 70.46 114.193 70.2467 114.366 69.98C114.54 69.7133 114.626 69.3667 114.626 68.94C114.626 68.5267 114.54 68.1933 114.366 67.94C114.193 67.6733 113.96 67.4667 113.666 67.32C113.386 67.1733 113.06 67.08 112.686 67.04C112.326 66.9867 111.953 66.96 111.566 66.96H109.726V71.02H111.486ZM119.134 63.88H121.534V79H119.134V63.88ZM130.205 77.78H130.145C129.905 78.2067 129.518 78.56 128.985 78.84C128.452 79.1067 127.845 79.24 127.165 79.24C126.778 79.24 126.372 79.1867 125.945 79.08C125.532 78.9867 125.145 78.8267 124.785 78.6C124.438 78.36 124.145 78.0533 123.905 77.68C123.678 77.2933 123.565 76.82 123.565 76.26C123.565 75.54 123.765 74.9667 124.165 74.54C124.578 74.1133 125.105 73.7867 125.745 73.56C126.385 73.3333 127.092 73.1867 127.865 73.12C128.652 73.04 129.418 73 130.165 73V72.76C130.165 72.16 129.945 71.72 129.505 71.44C129.078 71.1467 128.565 71 127.965 71C127.458 71 126.972 71.1067 126.505 71.32C126.038 71.5333 125.652 71.7933 125.345 72.1L124.105 70.64C124.652 70.1333 125.278 69.7533 125.985 69.5C126.705 69.2467 127.432 69.12 128.165 69.12C129.018 69.12 129.718 69.24 130.265 69.48C130.825 69.72 131.265 70.0333 131.585 70.42C131.905 70.8067 132.125 71.24 132.245 71.72C132.378 72.2 132.445 72.68 132.445 73.16V79H130.205V77.78ZM130.165 74.62H129.625C129.238 74.62 128.832 74.64 128.405 74.68C127.978 74.7067 127.585 74.78 127.225 74.9C126.865 75.0067 126.565 75.1667 126.325 75.38C126.085 75.58 125.965 75.86 125.965 76.22C125.965 76.4467 126.012 76.64 126.105 76.8C126.212 76.9467 126.345 77.0667 126.505 77.16C126.665 77.2533 126.845 77.32 127.045 77.36C127.245 77.4 127.445 77.42 127.645 77.42C128.472 77.42 129.098 77.2 129.525 76.76C129.952 76.32 130.165 75.72 130.165 74.96V74.62ZM133.601 69.4H136.261L138.941 76.38H138.981L141.361 69.4H143.861L139.321 81.06C139.148 81.5 138.961 81.8867 138.761 82.22C138.561 82.5667 138.321 82.8533 138.041 83.08C137.761 83.32 137.428 83.5 137.041 83.62C136.668 83.74 136.215 83.8 135.681 83.8C135.481 83.8 135.275 83.7867 135.061 83.76C134.861 83.7467 134.655 83.7133 134.441 83.66L134.641 81.58C134.801 81.6333 134.955 81.6667 135.101 81.68C135.261 81.7067 135.408 81.72 135.541 81.72C135.795 81.72 136.008 81.6867 136.181 81.62C136.355 81.5667 136.501 81.4733 136.621 81.34C136.741 81.22 136.848 81.0667 136.941 80.88C137.035 80.6933 137.135 80.4733 137.241 80.22L137.721 79L133.601 69.4ZM148.455 69.4H151.075L153.595 76.4H153.635L156.175 69.4H158.715L154.895 79H152.335L148.455 69.4ZM159.989 69.4H162.389V79H159.989V69.4ZM159.649 66.14C159.649 65.7533 159.789 65.42 160.069 65.14C160.362 64.8467 160.729 64.7 161.169 64.7C161.609 64.7 161.976 64.84 162.269 65.12C162.576 65.3867 162.729 65.7267 162.729 66.14C162.729 66.5533 162.576 66.9 162.269 67.18C161.976 67.4467 161.609 67.58 161.169 67.58C160.729 67.58 160.362 67.44 160.069 67.16C159.789 66.8667 159.649 66.5267 159.649 66.14ZM174.861 79H172.581V77.56H172.541C172.207 78.12 171.741 78.5467 171.141 78.84C170.554 79.1333 169.921 79.28 169.241 79.28C168.507 79.28 167.847 79.1467 167.261 78.88C166.687 78.6 166.194 78.2333 165.781 77.78C165.381 77.3133 165.067 76.7733 164.841 76.16C164.627 75.5333 164.521 74.8667 164.521 74.16C164.521 73.4533 164.634 72.7933 164.861 72.18C165.087 71.5667 165.407 71.0333 165.821 70.58C166.234 70.1267 166.727 69.7733 167.301 69.52C167.874 69.2533 168.501 69.12 169.181 69.12C169.621 69.12 170.014 69.1733 170.361 69.28C170.707 69.3733 171.007 69.4933 171.261 69.64C171.527 69.7867 171.754 69.9467 171.941 70.12C172.127 70.2933 172.281 70.46 172.401 70.62H172.461V63.88H174.861V79ZM166.961 74.16C166.961 74.5333 167.014 74.9067 167.121 75.28C167.241 75.6533 167.414 75.9867 167.641 76.28C167.867 76.5733 168.154 76.8133 168.501 77C168.847 77.1867 169.254 77.28 169.721 77.28C170.161 77.28 170.554 77.1933 170.901 77.02C171.247 76.8333 171.541 76.5933 171.781 76.3C172.034 76.0067 172.221 75.68 172.341 75.32C172.474 74.9467 172.541 74.5733 172.541 74.2C172.541 73.8267 172.474 73.4533 172.341 73.08C172.221 72.7067 172.034 72.3733 171.781 72.08C171.541 71.7867 171.247 71.5467 170.901 71.36C170.554 71.1733 170.161 71.08 169.721 71.08C169.254 71.08 168.847 71.1733 168.501 71.36C168.154 71.5333 167.867 71.7667 167.641 72.06C167.414 72.3533 167.241 72.6867 167.121 73.06C167.014 73.42 166.961 73.7867 166.961 74.16ZM184.336 73.24C184.336 72.9333 184.29 72.64 184.196 72.36C184.116 72.08 183.983 71.8333 183.796 71.62C183.61 71.4067 183.37 71.24 183.076 71.12C182.796 70.9867 182.463 70.92 182.076 70.92C181.356 70.92 180.743 71.14 180.236 71.58C179.743 72.0067 179.47 72.56 179.416 73.24H184.336ZM186.736 74.32C186.736 74.4267 186.736 74.5333 186.736 74.64C186.736 74.7467 186.73 74.8533 186.716 74.96H179.416C179.443 75.3067 179.53 75.6267 179.676 75.92C179.836 76.2 180.043 76.4467 180.296 76.66C180.55 76.86 180.836 77.02 181.156 77.14C181.476 77.26 181.81 77.32 182.156 77.32C182.756 77.32 183.263 77.2133 183.676 77C184.09 76.7733 184.43 76.4667 184.696 76.08L186.296 77.36C185.35 78.64 183.976 79.28 182.176 79.28C181.43 79.28 180.743 79.1667 180.116 78.94C179.49 78.7 178.943 78.3667 178.476 77.94C178.023 77.5133 177.663 76.9933 177.396 76.38C177.143 75.7533 177.016 75.0467 177.016 74.26C177.016 73.4867 177.143 72.7867 177.396 72.16C177.663 71.52 178.023 70.98 178.476 70.54C178.93 70.0867 179.463 69.74 180.076 69.5C180.703 69.2467 181.376 69.12 182.096 69.12C182.763 69.12 183.376 69.2333 183.936 69.46C184.51 69.6733 185.003 70 185.416 70.44C185.83 70.8667 186.15 71.4067 186.376 72.06C186.616 72.7 186.736 73.4533 186.736 74.32ZM188.301 74.16C188.301 73.4 188.434 72.7133 188.701 72.1C188.981 71.4733 189.354 70.94 189.821 70.5C190.287 70.06 190.841 69.72 191.481 69.48C192.121 69.24 192.801 69.12 193.521 69.12C194.241 69.12 194.921 69.24 195.561 69.48C196.201 69.72 196.754 70.06 197.221 70.5C197.687 70.94 198.054 71.4733 198.321 72.1C198.601 72.7133 198.741 73.4 198.741 74.16C198.741 74.92 198.601 75.6133 198.321 76.24C198.054 76.8667 197.687 77.4067 197.221 77.86C196.754 78.3 196.201 78.6467 195.561 78.9C194.921 79.1533 194.241 79.28 193.521 79.28C192.801 79.28 192.121 79.1533 191.481 78.9C190.841 78.6467 190.287 78.3 189.821 77.86C189.354 77.4067 188.981 76.8667 188.701 76.24C188.434 75.6133 188.301 74.92 188.301 74.16ZM190.741 74.16C190.741 74.5333 190.794 74.9067 190.901 75.28C191.021 75.6533 191.194 75.9867 191.421 76.28C191.647 76.5733 191.934 76.8133 192.281 77C192.627 77.1867 193.041 77.28 193.521 77.28C194.001 77.28 194.414 77.1867 194.761 77C195.107 76.8133 195.394 76.5733 195.621 76.28C195.847 75.9867 196.014 75.6533 196.121 75.28C196.241 74.9067 196.301 74.5333 196.301 74.16C196.301 73.7867 196.241 73.42 196.121 73.06C196.014 72.6867 195.847 72.3533 195.621 72.06C195.394 71.7667 195.107 71.5333 194.761 71.36C194.414 71.1733 194.001 71.08 193.521 71.08C193.041 71.08 192.627 71.1733 192.281 71.36C191.934 71.5333 191.647 71.7667 191.421 72.06C191.194 72.3533 191.021 72.6867 190.901 73.06C190.794 73.42 190.741 73.7867 190.741 74.16Z" fill="white"/>
<defs>
<filter id="filter0_d_3726_30183" x="0.7803" y="0.564381" width="148.586" height="148.586" filterUnits="userSpaceOnUse" color-interpolation-filters="sRGB">
<feFlood flood-opacity="0" result="BackgroundImageFix"/>
<feColorMatrix in="SourceAlpha" type="matrix" values="0 0 0 0 0 0 0 0 0 0 0 0 0 0 0 0 0 0 127 0" result="hardAlpha"/>
<feOffset dy="1.85732"/>
<feGaussianBlur stdDeviation="27.8598"/>
<feComposite in2="hardAlpha" operator="out"/>
<feColorMatrix type="matrix" values="0 0 0 0 0 0 0 0 0 0 0 0 0 0 0 0 0 0 0.1 0"/>
<feBlend mode="normal" in2="BackgroundImageFix" result="effect1_dropShadow_3726_30183"/>
<feBlend mode="normal" in="SourceGraphic" in2="effect1_dropShadow_3726_30183" result="shape"/>
</filter>
</defs>
</svg>
